<svg width="1512" height="982" viewBox="0 0 1512 982" fill="none" xmlns="http://www.w3.org/2000/svg">
<g clip-path="url(#clip0_1278_1497)">
<rect width="1512" height="982" fill="#F2F2FF"/>
<g filter="url(#filter0_d_1278_1497)">
<rect x="317" y="305" width="378" height="725" rx="30" fill="#F2F2FF"/>
</g>
<g filter="url(#filter1_d_1278_1497)">
<rect x="816" y="-49" width="378" height="725" rx="30" fill="#F2F2FF"/>
</g>
<path d="M503.949 483.898H489.744C489.555 482.439 489.167 481.123 488.579 479.949C487.992 478.775 487.216 477.771 486.25 476.938C485.284 476.104 484.138 475.47 482.812 475.034C481.506 474.58 480.057 474.352 478.466 474.352C475.644 474.352 473.21 475.044 471.165 476.426C469.138 477.809 467.576 479.807 466.477 482.42C465.398 485.034 464.858 488.197 464.858 491.909C464.858 495.773 465.407 499.011 466.506 501.625C467.623 504.22 469.185 506.18 471.193 507.506C473.22 508.812 475.615 509.466 478.381 509.466C479.934 509.466 481.345 509.267 482.614 508.869C483.901 508.472 485.028 507.894 485.994 507.136C486.979 506.36 487.784 505.422 488.409 504.324C489.053 503.206 489.498 501.947 489.744 500.545L503.949 500.631C503.703 503.206 502.954 505.744 501.704 508.244C500.473 510.744 498.778 513.027 496.619 515.091C494.46 517.136 491.828 518.765 488.721 519.977C485.634 521.189 482.093 521.795 478.096 521.795C472.831 521.795 468.115 520.64 463.949 518.33C459.801 516 456.524 512.61 454.119 508.159C451.714 503.708 450.511 498.292 450.511 491.909C450.511 485.508 451.733 480.081 454.176 475.631C456.619 471.18 459.924 467.799 464.091 465.489C468.257 463.178 472.926 462.023 478.096 462.023C481.619 462.023 484.877 462.515 487.869 463.5C490.862 464.466 493.494 465.886 495.767 467.761C498.04 469.617 499.886 471.9 501.307 474.608C502.727 477.316 503.608 480.413 503.949 483.898ZM533.965 521.824C529.382 521.824 525.442 520.886 522.147 519.011C518.87 517.117 516.342 514.485 514.562 511.114C512.8 507.723 511.919 503.794 511.919 499.324C511.919 494.835 512.8 490.905 514.562 487.534C516.342 484.144 518.87 481.511 522.147 479.636C525.442 477.742 529.382 476.795 533.965 476.795C538.548 476.795 542.478 477.742 545.755 479.636C549.05 481.511 551.579 484.144 553.34 487.534C555.12 490.905 556.01 494.835 556.01 499.324C556.01 503.794 555.12 507.723 553.34 511.114C551.579 514.485 549.05 517.117 545.755 519.011C542.478 520.886 538.548 521.824 533.965 521.824ZM534.05 511.341C535.717 511.341 537.128 510.83 538.283 509.807C539.438 508.784 540.319 507.364 540.925 505.545C541.55 503.727 541.863 501.625 541.863 499.239C541.863 496.814 541.55 494.693 540.925 492.875C540.319 491.057 539.438 489.636 538.283 488.614C537.128 487.591 535.717 487.08 534.05 487.08C532.327 487.08 530.868 487.591 529.675 488.614C528.501 489.636 527.601 491.057 526.976 492.875C526.37 494.693 526.067 496.814 526.067 499.239C526.067 501.625 526.37 503.727 526.976 505.545C527.601 507.364 528.501 508.784 529.675 509.807C530.868 510.83 532.327 511.341 534.05 511.341ZM564.727 521V477.364H577.937V485.375H578.42C579.329 482.723 580.863 480.631 583.022 479.097C585.181 477.562 587.757 476.795 590.75 476.795C593.78 476.795 596.375 477.572 598.534 479.125C600.693 480.678 602.066 482.761 602.653 485.375H603.108C603.922 482.78 605.513 480.706 607.88 479.153C610.248 477.581 613.041 476.795 616.261 476.795C620.39 476.795 623.742 478.121 626.318 480.773C628.894 483.405 630.181 487.023 630.181 491.625V521H616.289V494.807C616.289 492.629 615.731 490.972 614.613 489.835C613.496 488.68 612.047 488.102 610.267 488.102C608.354 488.102 606.848 488.727 605.75 489.977C604.67 491.208 604.13 492.866 604.13 494.949V521H590.778V494.665C590.778 492.638 590.229 491.038 589.13 489.864C588.032 488.689 586.583 488.102 584.784 488.102C583.572 488.102 582.501 488.396 581.573 488.983C580.645 489.551 579.916 490.366 579.386 491.426C578.875 492.487 578.619 493.737 578.619 495.176V521H564.727ZM640.389 521V477.364H654.281V521H640.389ZM647.35 472.278C645.399 472.278 643.723 471.634 642.321 470.347C640.92 469.04 640.219 467.468 640.219 465.631C640.219 463.812 640.92 462.259 642.321 460.972C643.723 459.665 645.399 459.011 647.35 459.011C649.319 459.011 650.995 459.665 652.378 460.972C653.78 462.259 654.48 463.812 654.48 465.631C654.48 467.468 653.78 469.04 652.378 470.347C650.995 471.634 649.319 472.278 647.35 472.278ZM678.616 496.114V521H664.724V477.364H677.934V485.375H678.417C679.383 482.705 681.031 480.612 683.36 479.097C685.69 477.562 688.464 476.795 691.684 476.795C694.752 476.795 697.413 477.487 699.667 478.869C701.94 480.233 703.701 482.146 704.951 484.608C706.22 487.051 706.845 489.911 706.826 493.188V521H692.934V495.915C692.953 493.491 692.337 491.597 691.087 490.233C689.856 488.869 688.142 488.188 685.945 488.188C684.487 488.188 683.199 488.509 682.082 489.153C680.983 489.778 680.131 490.678 679.525 491.852C678.938 493.027 678.635 494.447 678.616 496.114ZM737.368 538.273C733.22 538.273 729.669 537.695 726.714 536.54C723.76 535.384 721.44 533.803 719.754 531.795C718.069 529.788 717.055 527.515 716.714 524.977L729.868 524.239C730.114 525.129 730.569 525.905 731.231 526.568C731.913 527.231 732.794 527.742 733.873 528.102C734.972 528.462 736.26 528.642 737.737 528.642C740.067 528.642 741.989 528.074 743.504 526.938C745.038 525.82 745.805 523.86 745.805 521.057V513.386H745.322C744.773 514.731 743.94 515.934 742.822 516.994C741.705 518.055 740.313 518.888 738.646 519.494C736.998 520.1 735.105 520.403 732.964 520.403C729.783 520.403 726.866 519.665 724.214 518.188C721.582 516.691 719.47 514.381 717.879 511.256C716.307 508.112 715.521 504.068 715.521 499.125C715.521 494.03 716.336 489.835 717.964 486.54C719.593 483.225 721.724 480.773 724.356 479.182C727.008 477.591 729.858 476.795 732.908 476.795C735.199 476.795 737.159 477.193 738.788 477.989C740.436 478.765 741.79 479.769 742.851 481C743.911 482.231 744.716 483.509 745.265 484.835H745.663V477.364H759.498V521.17C759.498 524.864 758.57 527.979 756.714 530.517C754.858 533.055 752.264 534.977 748.93 536.284C745.597 537.61 741.743 538.273 737.368 538.273ZM737.794 510.29C739.48 510.29 740.919 509.845 742.112 508.955C743.305 508.064 744.224 506.786 744.868 505.119C745.512 503.453 745.834 501.455 745.834 499.125C745.834 496.758 745.512 494.722 744.868 493.017C744.243 491.294 743.324 489.968 742.112 489.04C740.919 488.112 739.48 487.648 737.794 487.648C736.07 487.648 734.612 488.121 733.419 489.068C732.226 490.015 731.317 491.35 730.692 493.074C730.086 494.778 729.783 496.795 729.783 499.125C729.783 501.455 730.095 503.453 730.72 505.119C731.345 506.786 732.245 508.064 733.419 508.955C734.612 509.845 736.07 510.29 737.794 510.29ZM826.839 490.688L814.083 491.028C813.951 490.119 813.591 489.314 813.004 488.614C812.417 487.894 811.65 487.335 810.703 486.938C809.775 486.521 808.695 486.312 807.464 486.312C805.854 486.312 804.481 486.634 803.345 487.278C802.227 487.922 801.678 488.794 801.697 489.892C801.678 490.744 802.019 491.483 802.72 492.108C803.439 492.733 804.718 493.235 806.555 493.614L814.964 495.205C819.32 496.038 822.559 497.42 824.68 499.352C826.82 501.284 827.9 503.841 827.919 507.023C827.9 510.015 827.01 512.619 825.248 514.835C823.506 517.051 821.119 518.775 818.089 520.006C815.059 521.218 811.593 521.824 807.691 521.824C801.46 521.824 796.546 520.545 792.947 517.989C789.368 515.413 787.322 511.966 786.811 507.648L800.532 507.307C800.835 508.898 801.621 510.11 802.89 510.943C804.159 511.777 805.779 512.193 807.748 512.193C809.529 512.193 810.977 511.862 812.095 511.199C813.212 510.536 813.78 509.655 813.799 508.557C813.78 507.572 813.345 506.786 812.493 506.199C811.64 505.593 810.305 505.119 808.487 504.778L800.873 503.33C796.498 502.534 793.241 501.066 791.1 498.926C788.96 496.767 787.9 494.021 787.919 490.688C787.9 487.771 788.676 485.28 790.248 483.216C791.82 481.133 794.055 479.542 796.953 478.443C799.85 477.345 803.269 476.795 807.208 476.795C813.118 476.795 817.777 478.036 821.186 480.517C824.595 482.979 826.479 486.369 826.839 490.688ZM856.727 521.824C852.144 521.824 848.205 520.886 844.909 519.011C841.633 517.117 839.104 514.485 837.324 511.114C835.563 507.723 834.682 503.794 834.682 499.324C834.682 494.835 835.563 490.905 837.324 487.534C839.104 484.144 841.633 481.511 844.909 479.636C848.205 477.742 852.144 476.795 856.727 476.795C861.311 476.795 865.241 477.742 868.517 479.636C871.813 481.511 874.341 484.144 876.102 487.534C877.883 490.905 878.773 494.835 878.773 499.324C878.773 503.794 877.883 507.723 876.102 511.114C874.341 514.485 871.813 517.117 868.517 519.011C865.241 520.886 861.311 521.824 856.727 521.824ZM856.813 511.341C858.479 511.341 859.89 510.83 861.046 509.807C862.201 508.784 863.082 507.364 863.688 505.545C864.313 503.727 864.625 501.625 864.625 499.239C864.625 496.814 864.313 494.693 863.688 492.875C863.082 491.057 862.201 489.636 861.046 488.614C859.89 487.591 858.479 487.08 856.813 487.08C855.089 487.08 853.631 487.591 852.438 488.614C851.263 489.636 850.364 491.057 849.739 492.875C849.133 494.693 848.83 496.814 848.83 499.239C848.83 501.625 849.133 503.727 849.739 505.545C850.364 507.364 851.263 508.784 852.438 509.807C853.631 510.83 855.089 511.341 856.813 511.341ZM907.859 521.824C903.275 521.824 899.336 520.886 896.04 519.011C892.764 517.117 890.236 514.485 888.455 511.114C886.694 507.723 885.813 503.794 885.813 499.324C885.813 494.835 886.694 490.905 888.455 487.534C890.236 484.144 892.764 481.511 896.04 479.636C899.336 477.742 903.275 476.795 907.859 476.795C912.442 476.795 916.372 477.742 919.648 479.636C922.944 481.511 925.472 484.144 927.234 487.534C929.014 490.905 929.904 494.835 929.904 499.324C929.904 503.794 929.014 507.723 927.234 511.114C925.472 514.485 922.944 517.117 919.648 519.011C916.372 520.886 912.442 521.824 907.859 521.824ZM907.944 511.341C909.611 511.341 911.022 510.83 912.177 509.807C913.332 508.784 914.213 507.364 914.819 505.545C915.444 503.727 915.756 501.625 915.756 499.239C915.756 496.814 915.444 494.693 914.819 492.875C914.213 491.057 913.332 489.636 912.177 488.614C911.022 487.591 909.611 487.08 907.944 487.08C906.22 487.08 904.762 487.591 903.569 488.614C902.395 489.636 901.495 491.057 900.87 492.875C900.264 494.693 899.961 496.814 899.961 499.239C899.961 501.625 900.264 503.727 900.87 505.545C901.495 507.364 902.395 508.784 903.569 509.807C904.762 510.83 906.22 511.341 907.944 511.341ZM952.513 496.114V521H938.621V477.364H951.831V485.375H952.314C953.28 482.705 954.927 480.612 957.257 479.097C959.586 477.562 962.361 476.795 965.581 476.795C968.649 476.795 971.31 477.487 973.564 478.869C975.836 480.233 977.598 482.146 978.848 484.608C980.117 487.051 980.742 489.911 980.723 493.188V521H966.831V495.915C966.85 493.491 966.234 491.597 964.984 490.233C963.753 488.869 962.039 488.188 959.842 488.188C958.384 488.188 957.096 488.509 955.979 489.153C954.88 489.778 954.028 490.678 953.422 491.852C952.835 493.027 952.532 494.447 952.513 496.114ZM1017.52 521.824C1015.48 521.824 1013.73 521.104 1012.27 519.665C1010.83 518.225 1010.12 516.483 1010.14 514.438C1010.12 512.43 1010.83 510.716 1012.27 509.295C1013.73 507.856 1015.48 507.136 1017.52 507.136C1019.46 507.136 1021.16 507.856 1022.64 509.295C1024.13 510.716 1024.89 512.43 1024.91 514.438C1024.89 515.801 1024.53 517.042 1023.83 518.159C1023.15 519.277 1022.25 520.167 1021.13 520.83C1020.03 521.492 1018.83 521.824 1017.52 521.824ZM1017.52 491.881C1015.48 491.881 1013.73 491.17 1012.27 489.75C1010.83 488.311 1010.12 486.559 1010.14 484.494C1010.12 482.487 1010.83 480.773 1012.27 479.352C1013.73 477.913 1015.48 477.193 1017.52 477.193C1019.46 477.193 1021.16 477.913 1022.64 479.352C1024.13 480.773 1024.89 482.487 1024.91 484.494C1024.89 485.858 1024.53 487.098 1023.83 488.216C1023.15 489.333 1022.25 490.223 1021.13 490.886C1020.03 491.549 1018.83 491.881 1017.52 491.881ZM1058.1 498.102C1058.1 505.11 1057.15 511.568 1055.26 517.477C1053.37 523.367 1050.41 528.841 1046.4 533.898H1032.93C1034.46 532.023 1035.88 529.741 1037.16 527.051C1038.47 524.362 1039.6 521.417 1040.54 518.216C1041.51 515.015 1042.26 511.701 1042.79 508.273C1043.34 504.845 1043.61 501.455 1043.61 498.102C1043.61 493.614 1043.15 489.097 1042.22 484.551C1041.29 479.987 1040.02 475.763 1038.41 471.881C1036.8 467.979 1034.98 464.778 1032.93 462.278H1046.4C1050.41 467.335 1053.37 472.818 1055.26 478.727C1057.15 484.617 1058.1 491.076 1058.1 498.102Z" fill="#0000FF"/>
<path d="M1188.75 619.39C1190.26 614.812 1196.74 614.812 1198.25 619.39L1199.8 624.103C1200.48 626.152 1202.39 627.536 1204.55 627.536H1209.42C1214.28 627.536 1216.28 633.773 1212.33 636.602L1208.52 639.324C1206.74 640.597 1206 642.879 1206.68 644.957L1208.17 649.455C1209.68 654.048 1204.44 657.902 1200.51 655.088L1196.41 652.153C1194.67 650.909 1192.33 650.909 1190.59 652.153L1186.49 655.088C1182.56 657.902 1177.32 654.048 1178.83 649.455L1180.32 644.957C1181 642.879 1180.26 640.597 1178.48 639.324L1174.67 636.602C1170.72 633.773 1172.72 627.536 1177.58 627.536H1182.45C1184.61 627.536 1186.52 626.152 1187.2 624.103L1188.75 619.39Z" fill="white"/>
<path d="M806.101 841.763C806.704 839.931 809.296 839.931 809.899 841.763L813.213 851.815C813.483 852.635 814.249 853.188 815.112 853.188H825.773C827.717 853.188 828.518 855.682 826.937 856.814L818.362 862.956C817.651 863.465 817.354 864.377 817.627 865.208L820.914 875.179C821.52 877.017 819.423 878.558 817.85 877.432L809.165 871.211C808.468 870.712 807.532 870.712 806.835 871.211L798.15 877.432C796.577 878.558 794.48 877.017 795.086 875.179L798.373 865.208C798.646 864.377 798.349 863.465 797.638 862.956L789.063 856.814C787.482 855.682 788.283 853.188 790.227 853.188H800.888C801.751 853.188 802.517 852.635 802.787 851.815L806.101 841.763Z" fill="#0000FF" fill-opacity="0.5"/>
<path d="M312.8 120.664C314.138 116.63 319.862 116.63 321.2 120.664C321.792 122.449 323.492 123.661 325.373 123.661C329.574 123.661 331.423 129.055 328 131.491C326.456 132.59 325.812 134.571 326.408 136.369C327.73 140.356 323.192 143.729 319.77 141.293L319.567 141.148C318.03 140.055 315.97 140.055 314.433 141.148L314.23 141.293C310.808 143.729 306.27 140.356 307.592 136.369C308.188 134.571 307.544 132.59 306 131.491C302.577 129.055 304.426 123.661 308.627 123.661C310.508 123.661 312.208 122.449 312.8 120.664Z" fill="white"/>
<path d="M578 570V594.394M578 614.606V639" stroke="white" stroke-width="10"/>
<path d="M612 605L587.606 605M567.394 605L543 605" stroke="white" stroke-width="10"/>
<path d="M1090.3 108V122.848M1090.3 135.152V150" stroke="#0000FF" stroke-opacity="0.5" stroke-width="10"/>
<path d="M1111 129.305L1096.15 129.305M1083.85 129.305L1069 129.305" stroke="#0000FF" stroke-opacity="0.5" stroke-width="10"/>
<path d="M370.062 642.366L359.563 652.866M350.863 661.565L340.364 672.065" stroke="#0000FF" stroke-opacity="0.5" stroke-width="6"/>
<path d="M369.633 672.064L359.133 661.565M350.434 652.865L339.934 642.366" stroke="#0000FF" stroke-opacity="0.5" stroke-width="6"/>
</g>
<defs>
<filter id="filter0_d_1278_1497" x="296.255" y="284.255" width="436" height="783" filterUnits="userSpaceOnUse" color-interpolation-filters="sRGB">
<feFlood flood-opacity="0" result="BackgroundImageFix"/>
<feColorMatrix in="SourceAlpha" type="matrix" values="0 0 0 0 0 0 0 0 0 0 0 0 0 0 0 0 0 0 127 0" result="hardAlpha"/>
<feMorphology radius="5" operator="dilate" in="SourceAlpha" result="effect1_dropShadow_1278_1497"/>
<feOffset dx="8.25537" dy="8.25537"/>
<feGaussianBlur stdDeviation="12"/>
<feComposite in2="hardAlpha" operator="out"/>
<feColorMatrix type="matrix" values="0 0 0 0 0 0 0 0 0 0.0470588 0 0 0 0 0.458824 0 0 0 0.18 0"/>
<feBlend mode="normal" in2="BackgroundImageFix" result="effect1_dropShadow_1278_1497"/>
<feBlend mode="normal" in="SourceGraphic" in2="effect1_dropShadow_1278_1497" result="shape"/>
</filter>
<filter id="filter1_d_1278_1497" x="795.255" y="-69.7446" width="436" height="783" filterUnits="userSpaceOnUse" color-interpolation-filters="sRGB">
<feFlood flood-opacity="0" result="BackgroundImageFix"/>
<feColorMatrix in="SourceAlpha" type="matrix" values="0 0 0 0 0 0 0 0 0 0 0 0 0 0 0 0 0 0 127 0" result="hardAlpha"/>
<feMorphology radius="5" operator="dilate" in="SourceAlpha" result="effect1_dropShadow_1278_1497"/>
<feOffset dx="8.25537" dy="8.25537"/>
<feGaussianBlur stdDeviation="12"/>
<feComposite in2="hardAlpha" operator="out"/>
<feColorMatrix type="matrix" values="0 0 0 0 0 0 0 0 0 0.0470588 0 0 0 0 0.458824 0 0 0 0.18 0"/>
<feBlend mode="normal" in2="BackgroundImageFix" result="effect1_dropShadow_1278_1497"/>
<feBlend mode="normal" in="SourceGraphic" in2="effect1_dropShadow_1278_1497" result="shape"/>
</filter>
<clipPath id="clip0_1278_1497">
<rect width="1512" height="982" fill="white"/>
</clipPath>
</defs>
</svg>
