<svg id="Layer_1" data-name="Layer 1" xmlns="http://www.w3.org/2000/svg" viewBox="0 0 327.87 97.99"><defs><style>.cls-1{fill:#7197ff;}</style></defs><path class="cls-1" d="M4.71,37.19,8.3,38.83l1.07-1.47,1.08.08,1.08-1.61L12.6,42l1.08-5.7,1.08,2,1.08.29,1.08.6L18,41.9l1.26-2.61,2-.7-2.87,4.73,3.35-1.65L21.58,43l3.06-.16.58,1.12.15,1.23L23,46.78l-.08,3,2.17-2.13L21.21,43.7l2.83.6,1.6-.07,2.85,1.49-1.83-3.61.46-1.3.54-1.33,4,4.78L31,40.91l-.32-3.65,3.09,5.44-.38-5,1.17-.12,1.09-.72,1.56,5.39.85-5.62,1.08,2.23,1.38-3.83.24,8,1.74-4.74L43,41.06l1.51-1.56,1.23-.16,2.32-2.11L46.21,43l4.4-4.47-1.66,4-1.59,2.92,3.35-1.63-3.08,3.27,6.89-2.83L53.75,46l-4.68,2.95,3.81-1.23-1.27-1,3.08.66L51.4,43.58l3,.79L57,45.3l-2.89-4.51L58,43.31l.4-1.24L60.93,44l.85-.31L61,40l1.7,1.26-.15-3.9,2.58,5.68,0-5.21,1-2.63,1.37,3.9,1.1-.12,1.09.09.63,3.45,1.48-2.82L72.66,41l.22,2.54,1.85-2.33.72.85,3.42-3.76L77.3,42.79l.06,1.44L82,41.06,77.5,46.41,84,43l-3.2,3.37,2.14.15-1.74,1.9L80.8,49.6l.14,1-1.63,1.28.8.8,7.08.37-4.14,1.41L81.92,55.5l-.34,1.08-1.34,1.09,1.29,1.09L83,59.84l-2.52,1.08L82.37,62l-2.49,1.09.3,1.09,1.15,1.09-.81,1.09L81,67.44l3.83,1.09-.65,1.09.91,1.09,2,1.09-4,1.1L80.59,74l2.64,1.16.65,1.09,1.94.72-4.21,2.41,1,1.2,1.23,1L86.31,81l-1.37,4.53,3.62-4.69.6,1.56,1.21-1.5-2.71,3.36,5.66,1.8-3-4.59-1.09,2.08-1.09-.19L87,87l-1.09-3.68-1.09.52-1.09-.3-1.09,3.6-1.09-4.29-1.08.87-1.09,2.08-1.09-3.49-1.09,5-1.09-3.23L75,82.67l-1.09-2-1.1,2.89-1.08.08-1.1.67-1.09,1.35-1.1-3.1-3.23,3.77,4.59-2.48-1.56-4.06,1.81,5.41.88-2,1.73.48,1-1.11-1.62-3,3.16.67L73.2,78l3-.35,2.06-1,.29-1.36L71.31,74l5.92-1.08,1.91-1.09-4.57-1.09-3.68-1.08.91-1.08,1.37-1.09L72,66.39l-.2-1.08L71,64.22l3.78-1.09L74.9,62,72.23,61l1.46-1.08.61-1.09-.07-1.09L72,56.59l-.18-1.09,4-1.12L71.6,53.5,73,52.4l5.09-1.69-5.55-.27.6-1.14L70.62,49l.19-.93,5.79-3.87-5.54,1.91L73.38,43l-3.52,2.11-1.48,1,2.48-7-3.35,6.14.2-5.28-1.19-.84-1.27-.81-.63,7.38-2.16-6.5L62,42l.54,3.66-2.79-3.11.9,3.12L58,44.06l-3.41-1.72L56.8,46l1.72,2.65-3.05-.89-.38,1,.55,1.52-2,.19,0,1.12-1.39,1.05,3.87.77-3,1.08L51,55.5l.56,1.08,3.82,1.09,2.32,1.09-7.29,1.08L57,60.92,55.08,62l1.76,1.09-4.52,1.09,5.13,1.09-4.73,1.09,4.45,1.08-4.11,1.09,2.79,1.09-5.06,1.09,6.52,1.09-1.48,1.1,1,1.09-7.12,1.36,1.79,1.19.44,1.25,2.51.56-1.08,1.78L55.82,80l-2,3.79,3.29-2.15.92.55,1.44-1.72.81.75,3.38.79-.69,3.76-2.77-.46-1.09-2L58,85.75,56.89,81.5l-1.08-1.87-1.08,4.49-1.09,2.29-1.08,1.22-1.09-2.3-1.08-1.78L49.31,85.7l-1.09-2.82-1.08,3.75-1.08-4.75L45,80.66,43.88,85l-1.09-.35-1.08-2.49-1.09,2-1.09-2.34-1.09,2.29-2,.74.83-2.07,1.14-1L38.85,79l.7.32,2.65,3.49-1.36-3.48.26-.56,6.24,2.41-6.12-3.8,3-.13-2.4-1.4,7-.51L48.45,74l-7.52-1.08,7.9-1.09-.46-1.09L45.5,69.65l-1.71-1.08,2.09-1.09,2-1.09L41.6,65.31,43,64.22l2.37-1.09.4-1.09L42.38,61l-.92-1.08L42,58.78l3.15-1.09,2.47-1.1L44.17,55.5l-1.18-1,1.44-1.09.53-1.1,2.92-1.36L46,50l2.27-1.56-2.77-.66-4.33.17L43.58,46l-3.16.58L44.07,43l-.91-1-1.53-.21L41,40.12,38.12,45V40.83l-.9-3.33-1.36,6.12-.85.67L34,43.2l-1.17-.72,0,3.09-2-2.44-2.4-2-2-.61,2.69,5.35L27,45.09l2,3.08-2-.43-3.09-.67,1.66,2.12-2.25.2,1.48,1.67,2.62,1-8,.87L19.31,54l3.85,1.11-.4,1.11-.94,1.11,5,1.11-4,1.11,1.76,1.1,0,1.1-.44,1.11L26,64l.69,1.11L21.48,66.2l4.9,1.11-1.52,1.11-.09,1.11-4.85,1.11,3.24,1.12-3.34,1.11L27.33,74l-5.21,1.22,1.79,1,.55,1-2.23,1.88L27.44,78l.9,0-3,3.86,1.9-.72-.08,3.16,2.49-5.48.59,1.35L28,84.07l4.18.89-2.08,1.36L29,82,28,83.75l-1.09.91-1.09-4.52L24.68,88l-1.09-.54L22.5,85.27l-1.08-1.41-1.09-3.39-1.09,3.64-1.09,2.27L17.06,84,16,83.21,14.88,80l-1.09,1.79L12.7,85.57l-1.09,2.14-1.09-7.58-1.1,2.25-1.1-.55L5,86.4l4.58-2.64L8.22,81.05,9,80l1.51,2.16L11.06,81l-1-2.54,3.34,2.06-.69-1.64L16,79l2-.92L15,76.28l3.72-.94L15.51,74l2.39-1.1-2.22-1.1V70.68l-1-1.1,3.11-1.1L15,67.37l.36-1.1L16,65.16l-2.62-1.1.7-1.1.16-1.1,1.91-1.11-1.23-1.1-.81-1.1-.57-1.11-.5-1.1,4.23-1.11-5.76-1.1L14.14,53l-2.45-1.11,1.19-1.11L14,49.68l-2.59-.93,4-1.4,2.3-1.72.1-1.6-2.56-.54,1-2.5-6,4L12,41.06l-.83-1.46-1-2.41L8.43,39.8,4.65,42.85Z"/><path class="cls-1" d="M95.58,71.23l2.87-.72-.44-1,.07-1L96.93,67l-.42-1.49,2.45.25-1.61-2.6,1.11-.64.16-1.6h1.58L103.07,63l.4-1.23-.31-2.69L105.39,61l-.19-3,1.64,1,.65-1.38.58-1.87,1.72,1.71,1.47,1.21.5-2.54L113.51,59l.38-3.82,1.39,1.54,1-.82,1.12.1,1.21,1.39.78-3.47L121,57.7l.69-2.49.74-1.26,1.26.48.85-.68,1.66.6.53-1.18.16-1.29-.84-1.64,1.89-.09-.58-1.21.25-.91-.91-1,3.9-1L127,45.16l1-1.13L128,43,127.84,42l.66-2-2.08.5-1.31.34.2-3.59-1.72,1.93-1-.61-1.06,1.77-1,.18-1,0-1.38-1.41-1.4-.81-1,.68.16,3.52-1.59-1.1-1.3-.19L111.12,40l.2,2.69-.3.89-.22,1-3.7-1.47,1,2.06,1.19,2.1L105.56,46l1.91,2.6-.69.82-.35,1.07-3.38-1.25,2,3-1.76-.12.57,2.69,0-2.16-3-.71,1.69-1-1.12-1.21-.29-1.15-1.73-1.24,3.75-.92L99.4,45.07l2.66-1L104,45.38l-.07-2.52,2.3,1.88-1.17-4.6,1.46.29L109,43l-.16-3.08.88-1,1.66,1.39.25-3.24,1.52,1.41,1.45,1.32.34-3.43,1.67,2.47,1-.65,1.4,1.66,1.06-.07.75-2.37,1.22,1L122.9,36l1.33,3.76,1-3.22L126.37,35l1,2.52,1.1,0,1.09.19.49,2.27,1.54-1.47.66,1-.07,1.71,1.8-.75.38.94,3.27-.42-2.31,2.1-.49,1.08,3.5.87-4.33,1,4.35,1.7-3,.46.6,1.49-1.81.19-1,.46-.75.63L131,50.66l-.55.87,1.21,4.35L129.4,54l-1.28-.22L127,54l-1.27-.45L125,54.64l-.81,1.15-1.45-1.25L121.94,56l-1.39-1.29-1,.39-1,.91-1.22-.27-1,.59L116,58.9l-1.12-.06-.76.9-.41,1.55-2-1.76-1.78-.84-.06,2-.66.91,0,1.52-2.84-1.33-.56,1.1L105.29,64l.59,1.65-3-.21,2.94,2.38-1.11.72.79,1.21-3.78.62,4.26,1.33-3.31,1.1,1.4,1,0,1.09,2.45.43L104.66,77l.7.87.32,1,2.42-.35-1.53,2.4,1.14.44,1.6-.32-.38,2.38,2.32-2.29.14,2.2.88,1.11,1.17,1.36L114.53,84l1.07-.16,1-.61.78-1.07L119,83.61l-.24-3,2.71,2.69-1.1-3.57,3,2.09.12-1.58,1.3-.33.58-1-1-2.07,2.18.12-.94-1.78,2-.18,1.53-.56.53-1-3.9-2.53,3.84.1,1.45-.81-2-1.83,2.37-.61.24,1.45-1.11,2.11.34,1.28-.28,1.09,0,1.25-2.61.07-.54.93,1,1.75-1.36.52-.91.71-.61.92.38,1.76-.72,1-2.56-1,.84,2.73-1.51,0-2.6-2.24.63,3.5-1.26,0-.67,1.76h-1.27l-1.76-4.06-.68,3.67-1.15-2.31-1.17,2.46-1.25,1-.62-4.7-1.75,4.1-.47-3.4-.91-.67-.82-.75-2.66,3.9.67-4.34-1.67.94-2.17,1.3.51-2.75-2.12.75.4-2.09,1-2.23-2.64.69-2.22,0,1.17-1.9-.53-1-1-.93L96,73.44l-.35-1.08Zm42.35,2.26-2.06,2.14,1,.8.7.94,2,.19,1.45.35-1.13,2.17,2.85-1,.4,1,1.33-.25.22,1.29-.14,3.52,1.52-.48,2.18-1.84-1.85.37v2.24l-1.14-1.52-1.15,1L143,86l-1.15-2.12-1.15-1.54-1.15,2.31-1.15-3.13L137,85l-.55-2-1.27.1-.81-.8.15-1.79-3.2,1.46,2.69-3-2.51,0-1.38-.54L130.4,77l-.69-.87.77-1.56-1-.73-1.14-.66-1.9-.3,1-1.69-1.29-.59-.44-1.07L124.45,68l3.86-.36-1.62-3.25,1.62.29.93-.55,1-.5,2,.17-.78-2,2-1.68-2.41,2.74,2.52.16v1.23l2,.35.54,1,.34,1.08-1.07,1.68-.61,1.48.75.91,3.49-.25L138,72.15Z"/><path class="cls-1" d="M165.47,74,167,75l-3.21,1.45-.05,1.33,2.49.59-1.16,1.83,2.3,0,2-.64-.38,2,.89.69.8,1.75,1.3-.2,3.11-1.73-2.11,1.43-.88,2.06L171,85.53l-1.09.47-1.09-2.93-1.09-1.34L166.61,85l-1.09.3-1.09-.08-1.08-2L162.26,83l-1.08,2-1.1-2L159,82.46l-1.08.9-1.1,1.26L155.72,84l-1.09-2.39-1.09.54-1.09.16-1.1,1.4-1.1.89L149.88,83l-2-.58,2.29-.54.85-1,1.1.61,2.27,2.13.77-1.38-.73-2.28,2.57.26-1.7-2,1.55-.68-.69-1.26-1.25-1.16,1.86-1L158.13,73l-2-1.07,2.7-1.07-3.13-1.07,1.49-1.07-.58-1.07.2-1.07,1.27-1.07-2.88-1.07,3.42-1.06-2-1.07-.88-1.07.74-1.07-.21-1.07,1.17-1.07L157,57l-.64-1.07L155,54.85l1.42-1.07-.78-1.08,0-1.07-.86-1.08,3.31-1.08-3.07-1,.94-1.12,0-1.07,0-1.12.87-1.66-1.92-.19-1.26-.13.7-3-1.94,1.27-1-.68-1.25,1.37-2.35-.87.46-2.45,2,1.09,1.08,1,1.09-.29,1.09-2.86,1.09,1.39,1.08.61,1.09,1.64,1.09-2.09,1.1-.4,1.09-.43.33,3.35,1.56-1.09,2.16-.5-2,2.85,2.78-.36.4,1.12.64,1-2.61,1.74L165.5,46l.14.23-1.18-2.06,4.07,1.55-1.4-2.46,1.74.19L169,42l.69-.91.14-1.92,2.48,2.23L172,38l1.83,1.71,1.41,1.39.64-2.08,1.25,2.23.92-4,1.06.79L180,41l1.15-2.4,1.09-.46.92,1.64,1.26-2.51,1.44,2-1.22,1.43,2.89.81-2.24,1.36.5,1.06-1.48,1.29,0,1.12,2,.91-.85,1L185,49.58l.09-3.4L182.86,48l-1.75.33.56-2.32-.82-.69-.75-.76.49-2-1.91.43-.52-1.13-.53-1.77-1.84,1.08-1.13-.2L174,43.7l-1.55-2.15-1.3-.14.44,3.06-3-2.43,1.75,3.61L168,44.76l.16,1.43-1.61.27-.86.83-.49,1-1.3.79,0,1.22,3.44,1.56-2.24,1L164.52,54l-.19,1.11-.71,1.11.69,1.11.75,1.11-1.34,1.11,1,1.1-1.33,1.1.16,1.11L164.2,64l-.43,1.11.28,1.11,2,1.11-.35,1.11.48,1.11,1.07,1.11-2.11,1.12-1.37,1.15Z"/><path class="cls-1" d="M189,37.73l-1.08-1.57,3.09-.93-2.16-.64.48-1.17,2.81,2,.27-1.46,1.36,0-.84-3-.42-2.4,3.77,3.32,1.12-.29-1.09-3.32,2.43,1.5-.82-3-.78-2.9,2.5,1.59,1.11-.32,2.17,1.14.56-1.07L201.68,21l2.91,2.15-1-3.17,1-.53,3-1.75-.86,4.72-1,2.06,4.61-1.82,1,.68.55,1-1.73,2.59.12.14.83,2.31L209,27l-1.26-.25-.53,1.65-.33,2.12L205.53,30l-2.3-2.87-.72,1.13-.93.62-.25,2.32-.53,1.62-2-2.19.3,3.73-1.2-.08-.54,1.61-1.48-.78-2.57-3.55-.64,1.35.12,3.29-2.27-2.78.77,3.3Zm-.27,44.63,2.42-.33,1.63,3.79.61-3,.75-1,2.76,2,.44-1.73,1.49-.71L197,79l-1.64-1.56,4.79.06.58-1.18-3.06-1.4,2.55-1-2.75-1.1-2.67-1.1,2.63-1.1.38-1.1,2.1-1.1-.51-1.09L195,66.2l3.29-1.1-3-1.1.15-1.1-.66-1.09,4.12-1.1,1.88-1.1-4.59-1.1-.43-1.1.11-1.1,2.77-1.11.4-1.09L196.24,53l2.89-1.1.66-1.11-1.27-1.11-1.8-1.07.77-1.16,3.09-1.81-1.11-1.19-.77-1.24-2.36-.09-1.62.09.58-2.84L192.89,43l-.74-.7-1.05,1.12-2.27-2.2,3.18.39-.78-.22,1.08-3,1.08,3.25,1.07-3.31,1.08,1.84L196.61,39l1.08-1.9,1.08,2.58,1.09,1.87,1.08-2.8.05,3.82,2.94-3.34-.52,2.35,1.3.37L205,43l-1.23,1.65,4.19-.23-4.4,2.23,2.91.52,1.36,1-1,1.22.33,1.12-1.65,1.11.7,1.11.9,1.11L209.12,55l-2,1.11,1.1,1.11-.06,1.11,1.21,1.12-4.65,1.1L209,61.63l-1.46,1.11-.21,1.11L206.86,65l-2,1.12L207,67.19l1.16,1.11L204,69.41l2.73,1.12-.58,1.12,2.13,1.12.13,1.12-.12,1L206.42,76l-1.2,1.31.68,1,4.09-.47-1.38,1.57-.12,1.29-.64,2.52,2.55-1.86,1-.19.95-.39.54,4.69,1-2.57,1.78,2.66-2.65-4L212,85.24l-1.08-.11-1.09.41-1.09-4.14-1.09,4.19-1.09-1.66-1.09,2.93-1.09-5.93-1.08,3.71-1.09-2-1.09,1.43-1.09.42-1.09,2.15-1.09-4.43-1.1,4.63-1.09-3.12-1.09-2.4-1.09,2.71-1.1-3.3-1.09,5.53L189.46,85Z"/><path class="cls-1" d="M237.82,74,236,75.07l-3.07,1.47.75,1.19.53,1.22v1.51l3.51-.79-.47,1.84.44,1.62L240,80.46l.77.33.73,2.53-.64.23,2.17.69L241.6,85.4l-1.09-1-1.09-2.88-1.09.25-1.09-1.34-1.09,3.84-1.09-.58L234,87.22l-1.08-6.08-1.09,1.77-1.09,3.86-1.09-6L228.53,84l-1.09-1-1.09,2.73-1.09-4.09-1.09,4-1.09-3L222,81.3l-1.09,4.28-1.1-.82,1.29-3.7-1.94,2,.58-.45L221.35,86l1.12-1.43,1.72.28-.57-3.42-1-2.3,5,2.34,1.1-1.13-3-2.41,3.11-.44-3-1.6-3-1.17,3.07-.87.44-1.09,2.43-1.09-.59-1.08-5-1.09,3.82-1.08-3.47-1.08.17-1.08-.76-1.09,4.78-1.09L229.82,63,224.5,62l-.5-1.08.13-1.08,3.2-1.09.47-1.08-3.28-1.08,3.34-1.09.77-1.08-1.48-1.09-2-1.09,1-1.08L230,50l-.86-1.08-.27-1.09-2.28-1.09-1.46-1.08,3.09-1.09-4-1.09.57-1.09-1.44-1.08,1.4-1.09,4.7-1.09-1.13-1.09L224.91,37l3.78-1.09-3.85-1.08L227,33.71l-1.47-1.08-2.2-1.09,3-1.09,2.17-1.09-3.25-1.09,4.41-1.09-5.1-1.09L226.94,25,226,23.91l.31-1.1,2.08-1.09-4.7-1.1,5.55-1.2L226,18.53l-1.56-.76,1-1.2-.66-.78,1.17-1.85-1.37-.41-1.42.19-1.68,1.64,0-2.44L220.27,14l-.89-.18-1,1.35-1-5.4.37,4.88-1.37-1.07-.81.49-1,.46L212,14l1.48,2.26.58,1.61-4.57-1.69,2.06,2.63-1.18.45,1.08,2.51-1.15,1.11L206.1,22l2.11-1.82,1.54-1.13-.54-1-4.71-.77,2.2-1.17.94-1.11,2.56-.59-2-1.74.73-1.07.78-1.09,2.84,4.63.06-3,.21-3.21,2.34,4.93.15-4.36,1.14-.06,1.11-.59,1.21,4.75L220,8.77l1,2,1.5-3.26.11,7,1.82-4,.53,2.46,1.49-1.29,1.23-.07,2.12-1.8-1.35,5.08,3.83-3.92-1.18,3.64-1.17,2.68,3-1.36-2.58,3,6.1-2.21-.65,1.73-4.2,2.36,4.11.16,1,1.1-2.51,1.22,4.25,1.09L236,25.32l-2.27,1.07,4.55,1.08-3.86,1.07.62,1.08-2.62,1.08-.16,1.09,3.12,1.08-1.59,1.07L237,35l-5.35,1.08,4.44,1.08,2.18,1.07-3.43,1.08.13,1.08,0,1.08-2.92,1.09,2.63,1.08-.91,1.08-2.06,1.08,2.45,1.08L233.75,48l4.3,1.08-4,1.08-.95,1.09,4.77,1.08-6,1.08,6.32,1.08-3.9,1.08,1.6,1.09-2,1.08-.66,1.08-.1,1.08L231.47,61l.59,1.08,6.08,1.09-3.66,1.08-1,1.08-.3,1.09L232,67.46l1.11,1.09,1.24,1.08-2.19,1.09,1.69,1.09L233,75.49Z"/><path class="cls-1" d="M247.82,83l1,2.72,1.08-1.58,1.15-.45.28-2.22-.09-1.62,3.92,2.63-3.71-4,.92-.28h2.83l-.4-1.18L257,76.2l-3.77-1.36,3.28-1,.51-1.1.36-1.1-3.41-1.1-.42-1.1-.24-1.1,2-1.09,2.37-1.1-4.86-1.1,1.63-1.1,2.77-1.1-.46-1.09-.16-1.1.52-1.1-3-1.1,1.39-1.1.93-1.1-3-1.11.11-1.09L255.68,53l1.25-1.1-2.16-1.11-.88-1.11.83-1.11,2.37-1.41-.43-1.25.74-1.66-3.57.08-.15-1.21-2.82,1.41,2.23-4.86-1.93.78L249.3,43.4l-.42-5.26-1.47,2.61.63-.43.58-2.18,1.07,3.54,1.08-3.5,1.08,2.56,1.07,1.19,1.08-3.7,1.08.71,1.08,4,1.08-2.75,1.08-.64v3.16l.86-.63-.06,1,2.74-1,2.41,0L260.41,45l-.11,1,3.32.2-2.3,1.46,2.86.71,2.75,1-2.62,1.24-.37,1.11-2.11,1.11.51,1.11L266.69,55l-3.31,1.11,3,1.11-.14,1.11.65,1.12-4.13,1.1-1.89,1.11,4.61,1.11.43,1.11L265.8,65,263,66.08l-.4,1.11,2.84,1.11-2.9,1.11-.66,1.12,1.28,1.12,1.76,1.12-.87,1.12-3.33,1.21.84,1.16.42,1.18,2.18.66,1.53.51-1.87,2.19,3.36-1.23.2.87,1.23-.7.22,1.39.15,4.21,1.38-.83,2.38-2.07-2.52-.1.21,2.84-1.09-1.86-1.09,1.28-1.09,1.91-1.09-2.59L265,82l-1.09,2.82L262.82,81l-1.08,4.42-1.09-2.1-1.08.81-1.1-.27-1.09-1.81-1.09,4.07-1.09-4.83-1.09,2.79L253,85.36l-1.09-1-1.09.31L249.74,83l-1.1.7-1.64.68Zm10.07-62.38L256,22.76l1.9.32.89.92,2.25-.43,1.71-.38-1.88,4.4,3.9-3.92,1.72,3L263,27l-.53,1.22-2.23-.84L262.11,31,259,29.62l-1.16.65-1,.8,1.06,3.46-2-1.47-.76-.76,1-2L257,27.7l-4.1,2.88.14-1.91.39-3-.49,1.1.06.86,1.29-.06-.64-3.1,1.65.47,1.47-.2L255,22.16l.55-.74,2.34,0Z"/><path class="cls-1" d="M273.4,71.22l.56-1.06,1.72-.72-1.63-1.56-.61-1.52,2-.29.12-1.24-.12-1.57.31-1.38L278.48,63l-.92-2.88,1.84.49,2.36,1.63-.36-2.72,1-.53,1.81,1.28.44-1.72,1.79,1.7-.24-4.05,2.18,3.3.72-1.38.75-1.53,1.19.24,1.11-.06,1.05-.42,1.15.29.89-2,1.36,3,.68-4.36,1.58,3.56.87-1.43,1.27.39,1.41.4,1.4,0,.36-1.84.39-1.32-1-2.19,2.69.68,2.46-.24L308,49.61l.1-1.22-1.49-1.28-1.16-1,3.74-1.36-4.56-.33.31-.94,1.54-1.85-1.1-.58.23-2.07L303,41.07l0-2.88-1.14-.7-1.23-.44-1.17,2.81-1,.41-1,.35-1.38-1.4-1.63-1.6.18,4.16-1.45-.9-1.93-1.67-.89.84-1,.64-1.23.19.66,2.62-1.53,0-1.25.39,1.38,2.28-.67.8-2-.12-1.44.28.85,1.88,0,1.29-1.21.44-2.25-.51-.5.8-1.14-.26.09,2.42.47-1.19-2.44-1.28,4.4-.88-1.2-1.21-2.68-1.3,4.31-.89-2.2-1.27.79-1-.22-1.83,2.38,2-.38-3.08,2,1.33,1.43.38-.3-3.25,1.3.06L289,42.55l.28-2.48.91-.79,1.7,2.24.84-1,1.19.38.56-2.47.75-1.91L297,40.1l1.09.15.69-2.74,1.32,1.94.86-2.37,1-2.28,1.22,2.14,1.1.32,1,1.79,1.06-.32L308,35.37l.5,2.93,1.92-2,1.17.68,1.49.31-1.34,3.36-.71,1.6,3.8-.94.78,1.13.16,1.31-2.19,1.32-.36,1,2.18,1.43-2.6.48-.87.63.39,1.38.42,1.8-1.35.3-2.52-1.53-.43,1-.77.66-.23,1.93-.62,1.41L305,54l-.14,3-1.22,0-.83,1.3-1.37-.69-1.84-3-.9,1-.61,2.62-1.6-2.44-.5,2.9-1.39-1.23-.72,1.31-.46,1.81L291.72,59l-1.63-1,.07,2.56-2.52-2.19L288.71,62l-1.86-.77-.38,1.2-.9.58-1.86-.12,2.1,2.82-4-1.16,1.54,2,.59,1.31-1.11.7,0,1.06-1.49.87.52,1.13.76,1,1.69.82-1.49,1.21,1.12.75.24.92,1.27.46-3,2.65,3.54-1-.4,1.46.53.84.51,1-.05,2,1.81-1,1.22-.59.35,3.55,1.34-2.17,1.1.45.83-1.86.92-.28.95-.13L296.71,83l1.5.57.86-.87-1-3.33,1.75.68,1.26-.18,2.16.48-1.17-2.41.23-1.11.12-1.11,3.85.94L305,74.68l-1.53-1.84,3.94.43-2.49-2,.39-1-.06-1.08,0,.51,3.28-1.35-.64,1.49,2,1.84-5-.59,2.52,2-1.89.38.66,1.45L306,76.09l1,1.83-3.72-.9,2.62,3-2.75-.59L301,79l1,2.26L299.36,80l2.16,4.17-1.5,0-2.64-2.33.41,3-.81,1-1.61-1.39L295,87.61l-1.46-1.51-1.22-1.51-1,3.28-1.09-2.78-1.13.38-.86-2-1-.26-1.48,2L285,83.83l-1.76,1.88.32-3.95-2.25,2.47-1.79.83.25-2.71-1-.56-.85-.71.71-2.22-2.08.49-.11-1.24.77-1.59-2-.1-.09-1.08L271.87,75l2.63-1.64.59-1.07ZM316,73.43l0,1.18-.91,1.68,2.27.09,1.49.36-.82,1.78,1.08.56,1.45.13,1.13.17-.9,2.74,2.26-1.87.25,1.69.6,2.83,1.8-2.16.14,1.57-1.52-1.76-1.14,1.41-1.15-2.22L321,85.49l-1.15-3.78-1.15,1.14-1.15,1.29-1.15-.48-1-.3-1.08-.12-.74-.88-2,1,1.11-3-3.88,2.06,2.39-3-1.56-.44.18-1.28.3-1.33,0-1.22-1.7-.4L307.24,74l-2.49,0,1.89-2.09L308.08,70l-1.53-.49-.57-.88-1.74-.69-.58-2.09,3.49,1.83-1.78-4.18,1.09-.18,2.3.79.3-1.22h2.05l.55-2.92L310,62.52l.05,1.2.17,1.15,3-.05.75.91.63,1-1.08,1.68-1.35,1.79,4.11-.51-.79,1.56-1.54,2.15Z"/></svg>