<svg id="Layer_1" data-name="Layer 1" xmlns="http://www.w3.org/2000/svg" viewBox="0 0 327.87 97.99"><defs><style>.cls-1{fill:#231f20;}</style></defs><path class="cls-1" d="M4.77,40.59H15.55c2,0,4.66,2.43,5.29,8a16.86,16.86,0,0,1,14.8-8.78c8,0,12.78,3.28,14.69,9.73,3.06-5.5,8.24-9.73,14.79-9.73,10.15,0,16.07,5.61,16.07,16.49v18.5c0,8.14,4.54,8.88,7.71,8.88v1h-24v-1c3.17,0,7.72-.74,7.72-8.88V56.34c0-9.62-3.07-14.06-9.83-14.06-5.6,0-9.72,4.76-11.95,10.15a23.14,23.14,0,0,1,.21,3.91v18.5c0,8.14,4.66,8.88,7.72,8.88v1H34.89v-1c3.07,0,7.61-.74,7.61-8.88V56.34c0-9.62-2.11-14.06-9.08-14.06-5.29,0-10.68,3.39-12.37,10.36v22.2c0,8.14,4.54,8.88,7.72,8.88v1h-24v-1c3.18,0,7.72-.74,7.72-8.88V50.53c0-8.25-4.65-8.88-7.72-8.88Z"/><path class="cls-1" d="M93.34,72.09c.63-11,14.37-14.69,22.72-15.33,7.5-.52,10.36-3.8,10.67-8.77.64-10-9-10.25-18.17-5-2.12,1.27-7.08,11-9.52,11l.53-9.09c1.48-.64,5.81-3.39,9.2-4.34,7.92-2.22,25.89-6.23,25,6.45-.43,6.87-8.57,9.62-17.44,11.2-6.24,1.17-13.85,4.76-14.69,13.22-.64,7.08,3.8,13.21,9.3,13.21,12.89,0,15.32-15.12,15.43-15.33l1,1.38c-1.48,4.65-5.18,15.64-16.49,15.64C100.31,86.36,92.91,80.33,93.34,72.09Zm41.95,2.33c3.28,7.71,6.56,9.3,9.62,9.3l.21,1h-9.19c-2,0-5.07-1.91-6.24-4l-5.07-10.78c-1.06-3.59,2.11-2,5.39-7.93Z"/><path class="cls-1" d="M163,74.84c0,8.14,4.55,8.88,7.72,8.88v1h-24v-1c3.17,0,7.71-.74,7.71-8.78V50.32c0-8-4.54-8.78-7.71-8.78v-.95h10.88c1.9,0,4.44,2.33,5.18,7.51a13.9,13.9,0,0,1,12.79-8.25c2.75,0,4.76.22,7.29.43l1,8.87c-3.59.85-7.4-6.65-10.46-6.65-5.18,0-9,3.17-10.36,10.14Z"/><path class="cls-1" d="M186.76,37l-1.48-1.27,19.23-14,4.55,6.55Zm1,46.72c3.17,0,7.71-.74,7.71-9V50.53c0-8.25-4.65-8.88-7.71-8.88V40.59h10.78c2.32,0,5.49,3.28,5.49,10.78V74.73c0,8.25,4.55,9,7.72,9v1h-24Z"/><path class="cls-1" d="M232.52,74.84c0,8.14,4.54,8.88,7.72,8.88v1h-24v-1c3.17,0,7.72-.74,7.72-9V21.46c0-7.92-3.8-8.87-9-8.87-3.38,0-6.23,9.51-9.3,9.51l-.42-7.3a25.26,25.26,0,0,1,11.1-3.17c6.66,0,16.17,2.44,16.17,12.37Z"/><path class="cls-1" d="M245.09,83.72c3.17,0,7.72-.74,7.72-9V50.53c0-8.25-4.65-9-7.72-9v-.95h10.79c2.32,0,5.49,3.28,5.49,10.78V74.73c0,8.25,4.55,9,7.72,9v1h-24Zm10.36-62.57a13.39,13.39,0,0,0,6.34,6.44A17.81,17.81,0,0,0,255.45,34c-1.79-3.38-3.17-4.76-6.45-6.34C253,26.11,254,24.42,255.45,21.15Z"/><path class="cls-1" d="M271.3,72.09c.64-11,14.38-14.69,22.73-15.33,7.5-.52,10.35-3.8,10.67-8.77.64-10-9-10.25-18.18-5-2.11,1.27-7.08,11-9.51,11l.53-9.09c1.48-.64,5.81-3.39,9.2-4.34,7.92-2.22,25.89-6.23,25,6.45-.42,6.87-8.56,9.62-17.44,11.2-6.23,1.17-13.84,4.76-14.69,13.22-.63,7.08,3.81,13.21,9.31,13.21,12.89,0,15.32-15.12,15.42-15.33l1,1.38c-1.48,4.65-5.18,15.64-16.49,15.64C278.28,86.36,270.88,80.33,271.3,72.09Zm42,2.33c3.28,7.71,6.56,9.3,9.62,9.3l.21,1H313.9c-2,0-5.08-1.91-6.24-4l-5.07-10.78c-1.06-3.59,2.11-2,5.39-7.93Z"/></svg>