<svg id="Layer_1" data-name="Layer 1" xmlns="http://www.w3.org/2000/svg" viewBox="0 0 500 500"><defs><style>.cls-1{fill:#f4f4f0;}.cls-1,.cls-4{stroke:#000;stroke-miterlimit:10;stroke-width:5px;}.cls-2{font-size:70.94px;font-family:CigraFREEDEMO-Regular, Cigra - FREE DEMO;}.cls-3{fill:#231f20;}.cls-4{fill:none;stroke-linecap:round;}.cls-5{fill:#b8cbff;}</style></defs><circle class="cls-1" cx="250" cy="250" r="217.17"/><text class="cls-2" transform="translate(238.05 455.35) rotate(-6.22)">W</text><text class="cls-2" transform="matrix(0.94, -0.35, 0.35, 0.94, 307.16, 445.25)">e</text><text class="cls-2" transform="matrix(0.88, -0.48, 0.48, 0.88, 339.42, 432.36)">l</text><text class="cls-2" transform="translate(360.22 420.96) rotate(-37.11)">c</text><text class="cls-2" transform="matrix(0.67, -0.74, 0.74, 0.67, 388.94, 398.83)">o</text><text class="cls-2" transform="matrix(0.44, -0.9, 0.9, 0.44, 419.11, 365.93)">m</text><text class="cls-2" transform="translate(445.55 306.14) rotate(-78.3)">e</text><text class="cls-2" transform="matrix(0.06, -1, 1, 0.06, 451.84, 272.11)">!</text><circle class="cls-3" cx="183.35" cy="204.53" r="9.85"/><circle class="cls-3" cx="316.65" cy="204.53" r="9.85"/><path class="cls-4" d="M171.41,244.14h0c32.76,81.57,124.42,81.57,157.18,0h0"/><ellipse class="cls-5" cx="151.31" cy="225.49" rx="32.04" ry="11.12"/><ellipse class="cls-5" cx="348.69" cy="225.49" rx="32.04" ry="11.12"/></svg>