<svg id="Layer_1" data-name="Layer 1" xmlns="http://www.w3.org/2000/svg" viewBox="0 0 500 500"><defs><style>.cls-1{fill:#f4f4f0;}.cls-1,.cls-3{stroke:#000;stroke-miterlimit:10;stroke-width:5px;}.cls-2{fill:#231f20;}.cls-3{fill:none;stroke-linecap:round;}.cls-4{fill:#b8cbff;}</style></defs><circle class="cls-1" cx="250" cy="250" r="213.43"/><path d="M246.21,446.34l-11.47-35.67,4.44-.19L248,439.55l.35,0,6.38-29.74,4.94-.22,9,29.06H269l6.24-29.74,4.45-.2-8.28,36.54-4.51.2L257.7,417l-.28,0-6.7,29.12Z"/><path d="M291.39,441.89,281.91,407l21-5.72,1,3.75-16.83,4.57,3.21,11.78,15.73-4.27,1,3.75-15.74,4.27L294.59,437l17.1-4.64,1,3.74Z"/><path d="M323.29,432.07l-15.14-32.82,4-1.83,13.52,29.29,15.25-7,1.63,3.53Z"/><path d="M360.31,381.74l-3.59,2.5a9.46,9.46,0,0,0-3-1.95,9.58,9.58,0,0,0-3.29-.65,10,10,0,0,0-3.32.53,11.73,11.73,0,0,0-3.12,1.57,10.94,10.94,0,0,0-3.93,4.75,11.43,11.43,0,0,0-.66,6.42,18,18,0,0,0,3.24,7.4,18.24,18.24,0,0,0,5.81,5.61,11.53,11.53,0,0,0,6.26,1.6,11.07,11.07,0,0,0,5.82-2,12.05,12.05,0,0,0,2.55-2.38,10.18,10.18,0,0,0,1.65-2.94,9.14,9.14,0,0,0-.26-6.8l3.59-2.5a14.46,14.46,0,0,1,1.36,5.1,13.4,13.4,0,0,1-.54,4.9,14.15,14.15,0,0,1-2.24,4.39,16.56,16.56,0,0,1-3.77,3.59,15.2,15.2,0,0,1-8,2.85,15.48,15.48,0,0,1-8.32-2,24.67,24.67,0,0,1-11.29-16.22,15.46,15.46,0,0,1,1-8.51,15.12,15.12,0,0,1,5.46-6.55,16.2,16.2,0,0,1,4.67-2.29,14.11,14.11,0,0,1,4.9-.58,13.44,13.44,0,0,1,4.78,1.18A14.59,14.59,0,0,1,360.31,381.74Z"/><path d="M391,359.72a22.09,22.09,0,0,1,5.82,8.26,15.45,15.45,0,0,1,.82,8.52,16.1,16.1,0,0,1-11.22,12,15.45,15.45,0,0,1-8.56-.24,24.7,24.7,0,0,1-14.44-13.49,15.46,15.46,0,0,1-.83-8.52,16.06,16.06,0,0,1,11.22-12,15.45,15.45,0,0,1,8.56.24A22,22,0,0,1,391,359.72Zm-2.89,3.1a18.11,18.11,0,0,0-6.85-4.27,11.55,11.55,0,0,0-6.46-.25,11.47,11.47,0,0,0-8.1,8.68,11.48,11.48,0,0,0,.69,6.42,20.86,20.86,0,0,0,11.59,10.81,11.43,11.43,0,0,0,6.45.26,11.47,11.47,0,0,0,8.1-8.68,11.48,11.48,0,0,0-.69-6.42A18.21,18.21,0,0,0,388.06,362.82Z"/><path d="M380.37,344.18l2.58-4.54,32.15,4.13.21-.37-20-25.49,2.58-4.54,31.43,17.84-2,3.56-23.88-13.56-.17.31,18.3,23.38-1.95,3.44-29.46-3.74-.17.31,23.88,13.55-2,3.56Z"/><path d="M434,318.5l-34.49-10.78,6.5-20.81,3.7,1.15-5.19,16.64,11.65,3.64L421,292.78l3.71,1.16-4.86,15.56,11.72,3.66,5.28-16.91,3.71,1.16Z"/><path d="M407.77,275.94l25.51,4.91-.72,4-25.64-4.21Zm35.43,8.76a3.17,3.17,0,1,1-2.57-3.68,3,3,0,0,1,1.49.7,3.32,3.32,0,0,1,.93,1.33A3,3,0,0,1,443.2,284.7Z"/><circle class="cls-2" cx="184.5" cy="205.31" r="9.68"/><circle class="cls-2" cx="315.5" cy="205.31" r="9.68"/><path class="cls-3" d="M172.76,244.24h0c32.2,80.17,122.28,80.17,154.48,0h0"/><ellipse class="cls-4" cx="153.01" cy="225.91" rx="31.48" ry="10.92"/><ellipse class="cls-4" cx="346.99" cy="225.91" rx="31.48" ry="10.92"/></svg>